<svg width="257" height="245" viewBox="0 0 257 245" fill="none" xmlns="http://www.w3.org/2000/svg">
<path d="M132.5 0L0 77L98 30L115.5 20L132.5 13L147.5 20L162 27.5L171 32.5L257 77L132.5 0Z" fill="white"/>
<path d="M124.5 245L257 168L159 215L141.5 225L124.5 232L109.5 225L95 217.5L86 212.5L0 168L124.5 245Z" fill="white"/>
<path d="M184.312 81C183.586 80.0234 176.415 77.5254 176.415 77.5254C177.662 77.0059 178.515 76.8984 178.515 74.75C178.515 72.4062 178.5 71.625 176.562 71.625H169.99C169.963 71.5781 169.934 71.5293 169.907 71.4805C165.664 64.0078 165.095 62.1191 158.767 59.5762C150.278 56.1719 134.364 56 128.125 56C121.886 56 105.972 56.1719 97.4907 59.5762C91.1551 62.1152 91.3125 63.4219 86.3501 71.4805C86.3501 71.502 86.2992 71.5586 86.2532 71.625H79.673C77.75 71.625 77.7355 72.4062 77.7355 74.75C77.7355 76.8984 78.588 77.0059 79.8352 77.5254C79.8352 77.5254 72.9062 80.2188 71.9375 81C70.9688 81.7812 70 87.25 70 96.625C70 106 70.9688 115.375 70.9688 115.375H73.8605C73.8605 118.109 74.3594 118.5 75.8125 118.5H95.1875C96.6406 118.5 97.125 118.109 97.125 115.375H159.125C159.125 118.109 159.609 118.5 161.062 118.5H180.922C181.891 118.5 182.375 117.914 182.375 115.375H185.281C185.281 115.375 186.25 105.805 186.25 96.625C186.25 87.4453 185.039 81.9766 184.312 81ZM96.4614 89.7773C92.0505 90.1662 87.617 90.3657 83.1798 90.375C78.2344 90.375 78.0648 90.6309 77.7161 88.1406C77.5849 87.0008 77.6264 85.8524 77.8396 84.7207L77.9922 84.125H78.7188C81.625 84.125 84.3545 84.2246 89.5082 85.4492C92.1295 86.0835 94.5949 87.0787 96.7956 88.3906C97.8516 89.0078 98.0938 89.5938 98.0938 89.5938L96.4614 89.7773ZM156.32 103.84L155.25 106H101C101 106 101.094 105.881 99.7891 103.816C98.8203 102.289 100.031 101.313 101.947 100.758C105.657 99.6797 116.5 96.625 128.125 96.625C139.75 96.625 150.808 99.2578 154.402 100.758C155.734 101.313 157.389 101.703 156.32 103.852V103.84ZM94.0783 77.1738C93.296 77.2102 92.5119 77.2148 91.7291 77.1875C92.3612 76.2812 92.7123 75.2715 93.3299 74.2168C95.2674 70.8965 97.4834 67.1387 101.429 65.5547C107.13 63.2656 118.946 62.2344 128.125 62.2344C137.304 62.2344 149.12 63.2578 154.821 65.5547C158.767 67.1387 160.973 70.8984 162.92 74.2168C163.543 75.2813 163.889 76.2988 164.538 77.2109C164.054 77.2324 163.496 77.2109 162.167 77.1738H94.0783ZM178.292 88.1328C177.773 90.5703 178.258 90.375 173.07 90.375C168.633 90.3657 164.2 90.1662 159.789 89.7773C159.098 89.6777 158.902 88.7383 159.454 88.3906C161.644 87.0641 164.113 86.0676 166.742 85.4492C171.896 84.2246 174.797 84.0605 177.662 84.1426C177.854 84.1485 178.037 84.2116 178.176 84.3198C178.314 84.428 178.397 84.5736 178.41 84.7285C178.547 85.8654 178.507 87.0117 178.292 88.1406V88.1328Z" fill="white"/>
<path d="M74.402 166.48V168H58.67V166.48H62.736L59.544 156.6H49.018L45.788 166.48H49.664V168H41.38V166.48H43.964L53.35 137.6H62.432L71.818 166.48H74.402ZM59.05 155.08L54.262 140.412L49.512 155.08H59.05ZM104.22 166.48V168H95.9735L93.3135 165.302L90.6155 168H82.1035L78.5695 164.466V146.72H75.5295V145.2H83.5855L87.1195 148.734V166.48H89.7795L92.4395 163.82V145.2H97.6455L101.18 148.734V166.48H104.22ZM122.647 164.466L119.113 168H111.551L108.017 164.466V140.26H105.357V138.74H113.033L116.187 141.894V147.48H121.507V149H116.187V166.48H118.277L121.469 163.288L122.647 164.466ZM147.132 149.114V164.086L143.218 168H129.234L125.32 164.086V149.114L129.234 145.2H143.218L147.132 149.114ZM134.44 146.72V166.48H138.012V146.72H134.44ZM173.155 166.48V159.26H174.865V168H149.785V166.48H152.825V139.12H149.785V137.6H164.605V139.12H161.565V166.48H173.155ZM199.716 149.114V164.086L195.802 168H181.818L177.904 164.086V149.114L181.818 145.2H195.802L199.716 149.114ZM187.024 146.72V166.48H190.596V146.72H187.024ZM215.859 152.8V146.72H211.869V166.48H219.089L222.091 163.478L223.269 164.656L219.925 168H206.663L203.129 164.466V148.734L206.663 145.2H220.685L223.459 147.974V152.8H215.859Z" fill="white"/>
</svg>
